<svg width="52" height="52" viewBox="0 0 52 52" fill="none" xmlns="http://www.w3.org/2000/svg">
<path d="M2 12.8043C2 12.0177 2.46109 11.3041 3.17824 10.9809L19.2426 3.74106C20.2881 3.26986 21.4856 3.27008 22.5309 3.74165L38.5781 10.9807C39.2949 11.3041 39.7557 12.0175 39.7557 12.8038V21.8157C39.7557 33.2504 32.7127 43.4502 22.1349 47.5485C21.3283 47.861 20.4329 47.861 19.6263 47.5486C9.04534 43.4503 2 33.2481 2 21.8104V12.8043Z" fill="white" stroke="white" stroke-width="2" stroke-linejoin="round"/>
<g clip-path="url(#clip0_1198_34927)">
<path opacity="0.35" d="M24.6318 21.5C26.5648 21.5 28.1318 19.933 28.1318 18C28.1318 16.067 26.5648 14.5 24.6318 14.5C22.6988 14.5 21.1318 16.067 21.1318 18C21.1318 19.933 22.6988 21.5 24.6318 21.5Z" fill="#5B8EF4" stroke="#5B8EF4" stroke-width="2" stroke-linecap="round" stroke-linejoin="round"/>
<path opacity="0.35" d="M18.6318 31.5V32.5H30.6318V31.5C30.6318 29.6363 30.6318 28.7043 30.3273 27.9692C29.9214 26.9891 29.1427 26.2104 28.1626 25.8045C27.4275 25.5 26.4956 25.5 24.6318 25.5C22.7681 25.5 21.8362 25.5 21.1011 25.8045C20.121 26.2104 19.3423 26.9891 18.9363 27.9692C18.6318 28.7043 18.6318 29.6363 18.6318 31.5Z" fill="#5B8EF4" stroke="#5B8EF4" stroke-width="2" stroke-linecap="round" stroke-linejoin="round"/>
<path d="M18.6318 21.5C20.5648 21.5 22.1318 19.933 22.1318 18C22.1318 16.067 20.5648 14.5 18.6318 14.5C16.6988 14.5 15.1318 16.067 15.1318 18C15.1318 19.933 16.6988 21.5 18.6318 21.5Z" fill="#5B8EF4" stroke="white" stroke-width="5" stroke-linecap="round" stroke-linejoin="round"/>
<path d="M12.6318 31.5V32.5H24.6318V31.5C24.6318 29.6363 24.6318 28.7043 24.3273 27.9692C23.9214 26.9891 23.1427 26.2104 22.1626 25.8045C21.4275 25.5 20.4956 25.5 18.6318 25.5C16.7681 25.5 15.8362 25.5 15.1011 25.8045C14.121 26.2104 13.3423 26.9891 12.9363 27.9692C12.6318 28.7043 12.6318 29.6363 12.6318 31.5Z" fill="#5B8EF4" stroke="white" stroke-width="5" stroke-linecap="round" stroke-linejoin="round"/>
<path d="M18.6318 21.5C20.5648 21.5 22.1318 19.933 22.1318 18C22.1318 16.067 20.5648 14.5 18.6318 14.5C16.6988 14.5 15.1318 16.067 15.1318 18C15.1318 19.933 16.6988 21.5 18.6318 21.5Z" fill="#5B8EF4" stroke="#5B8EF4" stroke-width="2" stroke-linecap="round" stroke-linejoin="round"/>
<path d="M12.6318 31.5V32.5H24.6318V31.5C24.6318 29.6363 24.6318 28.7043 24.3273 27.9692C23.9214 26.9891 23.1427 26.2104 22.1626 25.8045C21.4275 25.5 20.4956 25.5 18.6318 25.5C16.7681 25.5 15.8362 25.5 15.1011 25.8045C14.121 26.2104 13.3423 26.9891 12.9363 27.9692C12.6318 28.7043 12.6318 29.6363 12.6318 31.5Z" fill="#5B8EF4" stroke="#5B8EF4" stroke-width="2" stroke-linecap="round" stroke-linejoin="round"/>
</g>
<rect x="26.6133" y="28.0485" width="23.6424" height="19.4515" rx="4" fill="#2DCCFF"/>
<path d="M40.2471 37.7744C40.2471 40.5358 42.4856 42.7744 45.2471 42.7744H50.0413C51.1231 42.7744 52.0001 41.8974 52.0001 40.8156V34.7333C52.0001 33.6514 51.1231 32.7744 50.0413 32.7744H45.2471C42.4856 32.7744 40.2471 35.013 40.2471 37.7744Z" fill="#00A7DD"/>
<circle cx="1.74756" cy="1.74756" r="1.74756" transform="matrix(-1 0 0 1 46.6665 36.0266)" fill="white"/>
<defs>
<clipPath id="clip0_1198_34927">
<rect width="24" height="24" fill="white" transform="translate(7.63184 11.5)"/>
</clipPath>
</defs>
</svg>
